<?xml version="1.0" standalone="no"?>
<!DOCTYPE svg PUBLIC "-//W3C//DTD SVG 20010904//EN"
 "http://www.w3.org/TR/2001/REC-SVG-20010904/DTD/svg10.dtd">
<svg version="1.0" xmlns="http://www.w3.org/2000/svg"
 width="369.000000pt" height="369.000000pt" viewBox="0 0 369.000000 369.000000"
 preserveAspectRatio="xMidYMid meet">
<metadata>
Created by potrace 1.14, written by Peter Selinger 2001-2017
</metadata>
<g transform="translate(0.000000,369.000000) scale(0.100000,-0.100000)"
fill="#000000" stroke="none">
<path d="M2226 3498 c-98 -95 -195 -189 -215 -208 l-38 -35 -362 0 -362 0
-111 -190 c-60 -104 -120 -208 -133 -230 -12 -22 -78 -134 -145 -250 -68 -115
-131 -224 -140 -241 -10 -17 -104 -179 -209 -360 l-190 -329 14 -65 c16 -74
141 -681 149 -723 2 -15 7 -35 10 -45 3 -9 7 -33 10 -52 3 -19 19 -96 34 -170
l28 -135 93 -58 c52 -32 112 -68 135 -81 22 -13 133 -80 245 -150 152 -95 210
-126 225 -121 12 3 98 95 191 205 l170 199 250 1 c470 3 554 5 564 15 5 6 18
26 29 45 10 19 72 125 137 235 64 110 129 220 143 245 14 25 157 271 319 548
228 392 293 510 293 537 0 18 -7 64 -16 102 -9 37 -18 77 -20 88 -2 11 -20 90
-39 175 -40 171 -124 544 -131 575 -28 137 -49 213 -63 226 -9 9 -155 101
-326 204 -170 103 -317 194 -326 201 -8 8 -20 14 -25 14 -6 0 -90 -78 -188
-172z m293 -76 c50 -89 91 -164 91 -167 0 -3 -125 -5 -277 -5 l-278 0 159 153
c88 83 169 162 180 175 11 12 23 19 27 15 4 -5 49 -81 98 -171z m251 -25 c113
-71 209 -133 214 -138 6 -5 -55 -9 -150 -9 l-159 0 -85 143 c-46 78 -91 153
-99 166 -15 24 -15 24 29 -4 25 -16 137 -86 250 -158z m-865 -199 c3 -2 -55
-62 -127 -133 -73 -70 -198 -191 -278 -268 -80 -78 -215 -209 -300 -291 -86
-83 -283 -275 -439 -426 -156 -151 -287 -277 -292 -278 -5 -2 5 20 22 50 18
29 62 105 99 168 37 63 172 293 300 510 128 217 241 411 252 430 99 173 143
239 162 242 37 5 595 2 601 -4z m780 -74 c45 -85 50 -70 -45 -125 -25 -14
-270 -157 -545 -316 -742 -430 -1537 -889 -1564 -903 -21 -11 52 63 244 245
28 26 133 127 234 224 101 97 207 198 235 225 28 26 96 92 151 145 118 113
460 441 547 524 l60 57 322 0 321 0 40 -76z m280 62 c-40 -27 -186 -108 -189
-105 -10 14 -66 110 -66 114 0 3 62 5 137 5 119 0 135 -2 118 -14z m160 -226
c26 -113 48 -216 51 -230 3 -14 12 -54 20 -90 9 -36 18 -76 20 -90 3 -14 12
-54 20 -90 9 -36 18 -76 20 -90 3 -14 10 -45 15 -69 5 -24 8 -45 6 -47 -2 -3
-418 685 -454 752 -13 22 -9 25 120 98 72 42 133 72 134 68 1 -4 23 -99 48
-212z m-180 -272 c99 -165 189 -317 201 -337 12 -20 48 -81 82 -136 40 -67 57
-102 49 -106 -10 -6 -264 -45 -407 -64 -25 -3 -52 -8 -60 -10 -8 -2 -40 -7
-70 -10 -30 -3 -62 -8 -70 -10 -8 -2 -35 -7 -60 -10 -25 -3 -88 -13 -140 -21
-52 -8 -113 -17 -135 -20 -22 -3 -65 -9 -95 -14 -30 -5 -75 -12 -100 -15 -25
-3 -71 -10 -103 -16 -33 -6 -73 -12 -90 -13 -18 -2 -111 -16 -207 -30 -96 -15
-186 -29 -200 -31 -51 -7 -116 -17 -140 -21 -22 -3 -293 -44 -390 -58 -19 -3
-114 -17 -210 -31 -96 -14 -186 -28 -200 -30 -50 -8 -124 -15 -119 -12 4 4
183 106 289 165 25 14 62 36 82 49 21 12 39 23 42 23 2 0 33 17 67 38 35 21
89 52 119 69 54 30 220 124 250 142 8 5 177 102 375 216 198 113 511 293 695
400 184 106 342 193 350 194 9 0 83 -114 195 -301z m303 -653 c-7 -6 -49 -43
-93 -81 -44 -38 -82 -71 -85 -74 -3 -3 -79 -71 -170 -150 -90 -80 -172 -152
-180 -160 -9 -8 -32 -28 -51 -45 -84 -74 -284 -250 -289 -255 -3 -3 -43 -39
-90 -80 -47 -41 -104 -92 -127 -114 -23 -21 -52 -45 -63 -53 -11 -8 -66 -54
-122 -104 -57 -49 -106 -89 -111 -89 -5 0 -84 43 -175 96 -92 53 -183 105
-202 116 -228 130 -1027 593 -1034 599 -11 10 -13 10 64 14 59 3 162 15 170
20 3 2 30 6 60 9 30 4 66 8 80 11 14 2 122 18 240 35 118 17 226 33 240 35 14
2 45 7 70 10 25 3 70 9 100 15 30 5 78 12 105 15 28 3 122 17 210 30 88 13
241 36 340 50 99 14 189 27 200 29 11 2 43 7 70 10 28 4 61 9 75 11 14 2 61 9
105 15 44 6 91 13 105 16 14 2 45 6 70 10 25 3 70 9 100 15 30 5 89 13 130 19
102 13 157 21 205 29 60 11 69 10 53 -4z m-17 -107 c-11 -18 -126 -217 -257
-443 -130 -225 -309 -534 -396 -685 -88 -151 -162 -278 -166 -281 -6 -6 -452
247 -474 269 -6 6 3 19 24 37 18 15 70 61 115 103 46 41 93 83 105 94 13 11
37 32 53 46 17 15 66 58 110 97 44 38 100 88 125 111 25 23 63 57 85 75 21 19
46 41 55 49 19 17 62 56 180 160 47 41 87 77 90 80 5 5 128 114 215 190 21 19
62 56 90 82 59 56 71 60 46 16z m-2378 -595 c227 -130 428 -245 447 -256 19
-11 80 -45 135 -77 55 -32 116 -67 135 -78 19 -11 84 -48 143 -82 l108 -62
-23 -27 c-13 -14 -64 -73 -114 -131 -49 -58 -92 -107 -96 -110 -3 -3 -127 -5
-275 -5 l-268 0 -293 505 c-328 566 -325 560 -317 560 3 0 191 -106 418 -237z
m-358 18 c43 -74 86 -151 97 -170 11 -20 101 -176 199 -348 99 -172 179 -316
179 -320 0 -5 -80 -8 -177 -8 l-178 0 -27 125 c-14 69 -29 136 -31 150 -10 54
-118 558 -132 617 -14 59 -19 101 -11 92 2 -2 38 -64 81 -138z m1425 -631 c14
-11 28 -20 32 -20 7 0 318 -178 331 -189 4 -4 -132 -7 -302 -7 -204 1 -307 4
-303 11 19 32 196 225 205 225 7 0 23 -9 37 -20z m-827 -412 c47 -84 85 -154
83 -155 -3 -3 -439 258 -491 293 -17 12 4 14 151 14 l170 0 87 -152z m447 147
c0 -2 -42 -53 -92 -112 -51 -60 -113 -132 -137 -161 -25 -29 -48 -49 -52 -45
-3 5 -47 79 -97 166 l-91 157 234 0 c129 0 235 -2 235 -5z"/>
</g>
</svg>
